<?xml version="1.0" encoding="UTF-8" standalone="no"?>
<svg
   xmlns:dc="http://purl.org/dc/elements/1.1/"
   xmlns:cc="http://creativecommons.org/ns#"
   xmlns:rdf="http://www.w3.org/1999/02/22-rdf-syntax-ns#"
   xmlns:svg="http://www.w3.org/2000/svg"
   xmlns="http://www.w3.org/2000/svg"
   xmlns:sodipodi="http://sodipodi.sourceforge.net/DTD/sodipodi-0.dtd"
   xmlns:inkscape="http://www.inkscape.org/namespaces/inkscape"
   height="24"
   viewBox="0 0 24 24"
   width="24"
   version="1.1"
   id="svg6"
   sodipodi:docname="alarm_off-24px.svg"
   inkscape:version="0.92.5 (2060ec1f9f, 2020-04-08)">
  <metadata
     id="metadata12">
    <rdf:RDF>
      <cc:Work
         rdf:about="">
        <dc:format>image/svg+xml</dc:format>
        <dc:type
           rdf:resource="http://purl.org/dc/dcmitype/StillImage" />
      </cc:Work>
    </rdf:RDF>
  </metadata>
  <defs
     id="defs10" />
  <sodipodi:namedview
     pagecolor="#ffffff"
     bordercolor="#666666"
     borderopacity="1"
     objecttolerance="10"
     gridtolerance="10"
     guidetolerance="10"
     inkscape:pageopacity="0"
     inkscape:pageshadow="2"
     inkscape:window-width="1920"
     inkscape:window-height="1017"
     id="namedview8"
     showgrid="false"
     inkscape:zoom="9.8333333"
     inkscape:cx="15.152542"
     inkscape:cy="12"
     inkscape:window-x="0"
     inkscape:window-y="34"
     inkscape:window-maximized="1"
     inkscape:current-layer="svg6" />
  <path
     d="M0 0h24v24H0z"
     fill="none"
     id="path2" />
  <path
     d="m 12.146192,7.0461916 c 3.232923,0 5.847665,2.6147424 5.847665,5.8476654 0,0.70172 -0.13366,1.378379 -0.359213,2.004914 l 1.269779,1.269779 c 0.48452,-0.994103 0.760196,-2.096806 0.760196,-3.274693 0,-4.151842 -3.366585,-7.518427 -7.518427,-7.518427 -1.177887,0 -2.28059,0.2756756 -3.2746932,0.7601965 L 10.141278,7.4054054 C 10.767813,7.1798526 11.444472,7.0461916 12.146192,7.0461916 Z M 20.5,6.812285 l -3.842752,-3.22457 -1.077641,1.2781327 3.842752,3.22457 z M 4.5609337,3.9469287 3.5,5.0162162 4.6110565,6.1272727 3.6837838,6.9041769 4.8700246,8.0904177 5.7972973,7.3051597 6.465602,7.9734644 C 5.3211302,9.293366 4.6277641,11.014251 4.6277641,12.893857 c 0,4.151843 3.358231,7.518428 7.5184279,7.518428 1.879607,0 3.600491,-0.693366 4.920393,-1.837838 l 1.837838,1.837838 1.060933,-1.060934 L 5.3712531,4.765602 Z M 15.880344,17.39656 c -1.010811,0.835381 -2.314005,1.344963 -3.734152,1.344963 -3.2329242,0 -5.8476662,-2.614742 -5.8476662,-5.847666 0,-1.420147 0.5095823,-2.723341 1.3449631,-3.734152 z M 8.8213759,4.7739558 7.6351351,3.587715 6.9167076,4.1808354 8.1029484,5.3670762 Z"
     id="path4"
     inkscape:connector-curvature="0"
     style="stroke-width:0.83538085" />
</svg>
