<?xml version="1.0" encoding="UTF-8" standalone="no"?>
<svg
   xmlns:dc="http://purl.org/dc/elements/1.1/"
   xmlns:cc="http://creativecommons.org/ns#"
   xmlns:rdf="http://www.w3.org/1999/02/22-rdf-syntax-ns#"
   xmlns:svg="http://www.w3.org/2000/svg"
   xmlns="http://www.w3.org/2000/svg"
   xmlns:sodipodi="http://sodipodi.sourceforge.net/DTD/sodipodi-0.dtd"
   xmlns:inkscape="http://www.inkscape.org/namespaces/inkscape"
   height="24"
   viewBox="0 0 24 24"
   width="24"
   version="1.1"
   id="svg6"
   sodipodi:docname="alarm_on-24px.svg"
   inkscape:version="0.92.5 (2060ec1f9f, 2020-04-08)">
  <metadata
     id="metadata12">
    <rdf:RDF>
      <cc:Work
         rdf:about="">
        <dc:format>image/svg+xml</dc:format>
        <dc:type
           rdf:resource="http://purl.org/dc/dcmitype/StillImage" />
      </cc:Work>
    </rdf:RDF>
  </metadata>
  <defs
     id="defs10" />
  <sodipodi:namedview
     pagecolor="#ffffff"
     bordercolor="#666666"
     borderopacity="1"
     objecttolerance="10"
     gridtolerance="10"
     guidetolerance="10"
     inkscape:pageopacity="0"
     inkscape:pageshadow="2"
     inkscape:window-width="1920"
     inkscape:window-height="1017"
     id="namedview8"
     showgrid="false"
     inkscape:zoom="9.8333333"
     inkscape:cx="15.152542"
     inkscape:cy="12"
     inkscape:window-x="0"
     inkscape:window-y="34"
     inkscape:window-maximized="1"
     inkscape:current-layer="svg6" />
  <path
     d="M0 0h24v24H0z"
     fill="none"
     id="path2" />
  <path
     d="m 20.5,6.7215 -3.91,-3.281 -1.0965,1.3005 3.91,3.281 z M 8.498,4.741 7.41,3.4405 3.5,6.713 4.5965,8.0135 Z M 12,5.2595 c -4.2245,0 -7.65,3.4255 -7.65,7.65 0,4.2245 3.417,7.65 7.65,7.65 4.2245,0 7.65,-3.4255 7.65,-7.65 0,-4.2245 -3.4255,-7.65 -7.65,-7.65 z m 0,13.6 c -3.2895,0 -5.95,-2.6605 -5.95,-5.95 0,-3.2895 2.6605,-5.95 5.95,-5.95 3.2895,0 5.95,2.6605 5.95,5.95 0,3.2895 -2.6605,5.95 -5.95,5.95 z M 10.759,14.21 8.9485,12.3995 l -0.901,0.901 2.703,2.703 5.1,-5.1 -0.901,-0.901 z"
     id="path4"
     inkscape:connector-curvature="0"
     style="stroke-width:0.85000002" />
</svg>
