<?xml version="1.0" encoding="UTF-8" standalone="no"?>
<!-- Created with Inkscape (http://www.inkscape.org/) -->

<svg
   xmlns:dc="http://purl.org/dc/elements/1.1/"
   xmlns:cc="http://creativecommons.org/ns#"
   xmlns:rdf="http://www.w3.org/1999/02/22-rdf-syntax-ns#"
   xmlns:svg="http://www.w3.org/2000/svg"
   xmlns="http://www.w3.org/2000/svg"
   xmlns:sodipodi="http://sodipodi.sourceforge.net/DTD/sodipodi-0.dtd"
   xmlns:inkscape="http://www.inkscape.org/namespaces/inkscape"
   width="210mm"
   height="297mm"
   viewBox="0 0 210 297"
   version="1.1"
   id="svg8"
   inkscape:version="0.92.5 (2060ec1f9f, 2020-04-08)"
   sodipodi:docname="masjid-mini.svg">
  <defs
     id="defs2" />
  <sodipodi:namedview
     id="base"
     pagecolor="#ffffff"
     bordercolor="#666666"
     borderopacity="1.0"
     inkscape:pageopacity="0.0"
     inkscape:pageshadow="2"
     inkscape:zoom="0.49497475"
     inkscape:cx="841.2107"
     inkscape:cy="594.8856"
     inkscape:document-units="mm"
     inkscape:current-layer="g23"
     showgrid="false"
     inkscape:window-width="1920"
     inkscape:window-height="1015"
     inkscape:window-x="0"
     inkscape:window-y="36"
     inkscape:window-maximized="1" />
  <metadata
     id="metadata5">
    <rdf:RDF>
      <cc:Work
         rdf:about="">
        <dc:format>image/svg+xml</dc:format>
        <dc:type
           rdf:resource="http://purl.org/dc/dcmitype/StillImage" />
        <dc:title></dc:title>
      </cc:Work>
    </rdf:RDF>
  </metadata>
  <g
     inkscape:label="Layer 1"
     inkscape:groupmode="layer"
     id="layer1">
    <g
       id="g23"
       transform="translate(285.75,-15.875)">
      <g
         id="g67"
         transform="matrix(0.76818764,0,0,0.76818764,-339.57187,-27.127589)"
         inkscape:export-xdpi="96"
         inkscape:export-ydpi="96">
        <path
           inkscape:connector-curvature="0"
           id="path37"
           d="m 81.210788,111.17566 -2.009258,-0.0282 v -3.96603 -3.96603 l -0.510213,-0.51047 c -0.676129,-0.67647 -0.894241,-1.13289 -0.892341,-1.86728 0.0026,-1.000916 0.647038,-1.834841 2.225624,-2.87999 0.479317,-0.317344 0.906331,-0.637713 0.94892,-0.711928 0.0908,-0.15822 0.37365,-0.177695 0.51583,-0.03552 0.06801,0.06801 0.258762,-0.08378 0.603728,-0.48039 0.424319,-0.487848 1.278486,-1.187123 2.671152,-2.186767 l 0.272165,-0.195359 -0.343159,-0.918208 c -0.460547,-1.232305 -0.65012,-2.21639 -0.65012,-3.374813 0,-3.901458 2.299629,-7.280348 7.794953,-11.453281 0.319545,-0.242649 1.626773,-1.17249 2.904952,-2.066314 1.278179,-0.893823 2.642829,-1.891538 3.032555,-2.217142 0.718291,-0.60011 1.663783,-1.660164 1.663783,-1.865377 0,-0.06171 -0.228807,-0.241336 -0.50846,-0.399162 -0.589204,-0.332526 -1.221536,-0.983427 -1.540673,-1.585914 -0.184646,-0.348586 -0.223374,-0.571337 -0.22475,-1.292647 -0.0014,-0.73175 0.03649,-0.949116 0.236276,-1.355644 0.538614,-1.095977 1.851072,-1.967484 3.299788,-2.191145 1.38856,-0.214376 2.15159,0.111799 1.14966,0.49145 -1.91791,0.726736 -2.827696,2.692619 -1.997406,4.316039 0.388726,0.760046 1.274646,1.502198 2.127396,1.782143 0.19972,0.06556 0.36312,0.180359 0.36312,0.2551 0,0.198721 -0.39618,0.266391 -1.26511,0.216089 -0.6167,-0.0357 -0.76835,-0.0176 -0.76835,0.09167 0,0.299187 1.59688,1.717859 2.64458,2.349447 4.23593,2.553556 6.46153,4.180611 8.48128,6.20036 3.15379,3.153792 4.56267,6.400263 4.18554,9.64469 -0.11181,0.961829 -0.50744,2.403585 -0.83158,3.030401 -0.0818,0.158185 -0.14873,0.30917 -0.14873,0.335518 0,0.02635 0.40306,0.32159 0.89569,0.656095 0.49263,0.334505 1.2755,0.988726 1.73971,1.453825 0.46421,0.465101 0.86985,0.803847 0.90141,0.752774 0.0894,-0.144705 0.39596,-0.109272 0.53829,0.06223 0.0708,0.0853 0.50098,0.399782 0.95596,0.698852 1.6034,1.053923 2.30925,2.042538 2.20179,3.083798 -0.0652,0.63204 -0.40332,1.2461 -0.93811,1.70386 l -0.38801,0.33212 -0.001,3.9124 c -8.2e-4,2.19749 -0.0403,3.9738 -0.0901,4.05249 -0.1341,0.21197 -22.701237,0.25971 -23.023564,0.0487 -0.30467,-0.19944 -1.797762,-0.19575 -1.96425,0.005 -0.173702,0.2093 -2.779783,0.21192 -3.0559,0.003 -0.128895,-0.0975 -0.431397,-0.14216 -0.962617,-0.14216 -0.531219,0 -0.833721,0.0447 -0.962616,0.14216 -0.189373,0.14324 -2.701786,0.1621 -9.277338,0.0697 z"
           style="fill:#e4d2af;stroke-width:0.09683172" />
        <path
           inkscape:connector-curvature="0"
           id="path35"
           d="m 92.583673,111.03515 c -0.079,-0.079 -0.116197,-0.53838 -0.116197,-1.43502 0,-1.28605 -0.006,-1.32404 -0.24208,-1.5293 -0.209084,-0.1818 -0.242079,-0.29153 -0.242079,-0.80509 0,-0.32703 0.05124,-0.76564 0.113876,-0.97469 0.152338,-0.50846 0.725751,-1.1415 1.288589,-1.4226 0.400412,-0.19998 0.50437,-0.2154 0.818117,-0.1214 1.022929,0.30648 1.747584,1.36555 1.748978,2.55611 4.94e-4,0.38034 -0.0502,0.51393 -0.289955,0.76481 l -0.290495,0.30398 v 1.33092 c 0,1.1243 -0.02378,1.34005 -0.153167,1.3897 -0.294761,0.11311 -2.513392,0.0648 -2.635587,-0.0574 z m 5.03525,0 c -0.08329,-0.0833 -0.116198,-0.71582 -0.116198,-2.2335 0,-1.18811 -0.04137,-2.19461 -0.09428,-2.29346 -0.05185,-0.0969 -0.196893,-0.20191 -0.322311,-0.23339 -0.332343,-0.0834 -0.454898,-0.45117 -0.454898,-1.36503 0,-1.80368 0.796751,-3.05321 2.443637,-3.83232 0.762273,-0.36061 0.964517,-0.3589 1.711647,0.0144 0.83001,0.41476 1.58694,1.17822 1.9613,1.97821 0.51202,1.09415 0.49894,3.02774 -0.0216,3.19296 -0.46514,0.14762 -0.47875,0.21882 -0.47875,2.50345 0,1.54501 -0.0328,2.18523 -0.1162,2.26863 -0.16473,0.16473 -4.347633,0.16473 -4.512361,0 z m 6.778217,0 c -0.0786,-0.0787 -0.11619,-0.52971 -0.11619,-1.39599 v -1.27978 l -0.26629,-0.19439 c -0.25005,-0.18252 -0.26584,-0.23765 -0.2589,-0.90377 0.009,-0.82174 0.20663,-1.295 0.77165,-1.84381 0.48978,-0.47573 1.00773,-0.69754 1.43958,-0.61653 0.43325,0.0813 1.08107,0.57169 1.45159,1.09887 0.24788,0.35269 0.29151,0.51373 0.32706,1.20735 0.0391,0.76248 0.0291,0.8115 -0.21094,1.03513 -0.24522,0.22846 -0.25197,0.2669 -0.25197,1.43463 0,0.65994 -0.0451,1.28417 -0.10024,1.38719 -0.0914,0.17072 -0.21389,0.18729 -1.38469,0.18729 -0.86992,0 -1.32196,-0.0375 -1.40066,-0.11619 z m -21.160955,-0.0452 c -0.03551,-0.0355 -0.06455,-1.74994 -0.06455,-3.80985 0,-3.65916 -0.0046,-3.74944 -0.199554,-3.92588 -0.181014,-0.16382 -0.350795,-0.17791 -1.827457,-0.15173 -1.782371,0.0316 -1.808316,0.0256 -2.459662,-0.56907 -0.533419,-0.48702 -0.779963,-1.00682 -0.780817,-1.64625 -0.0013,-0.97874 0.583841,-1.771776 2.0062,-2.718945 0.488902,-0.325565 0.982334,-0.678155 1.096516,-0.783532 0.178145,-0.164405 0.236077,-0.173812 0.408264,-0.06628 0.182205,0.113787 0.234362,0.08555 0.567051,-0.307032 0.201514,-0.237791 0.518899,-0.57837 0.7053,-0.756847 0.427197,-0.409033 1.78435,-1.434114 2.146927,-1.621611 0.150626,-0.07789 0.273866,-0.211355 0.273866,-0.296585 0,-0.08523 -0.14967,-0.530747 -0.332599,-0.990038 -0.681858,-1.711982 -0.815153,-3.820856 -0.352681,-5.57983 0.465647,-1.771052 1.80036,-3.924741 3.512005,-5.666966 1.684148,-1.714235 3.095953,-2.843708 6.711199,-5.3691 2.642902,-1.846169 2.976848,-2.099419 3.75896,-2.850619 0.596814,-0.573224 1.227874,-1.367326 1.227874,-1.545108 0,-0.05854 -0.221685,-0.218771 -0.492632,-0.356071 -0.647401,-0.328063 -1.30245,-0.994116 -1.594405,-1.62119 -0.283946,-0.609873 -0.317361,-1.541475 -0.08025,-2.237359 0.326448,-0.958069 1.505313,-1.907088 2.79669,-2.251412 0.51849,-0.138247 1.69479,-0.17905 1.6942,-0.05877 -2e-4,0.03994 -0.28388,0.219225 -0.6304,0.398405 -0.71209,0.368214 -1.421032,1.087599 -1.730603,1.756101 -0.309366,0.668063 -0.284551,1.825527 0.05294,2.469406 0.315496,0.601906 1.146933,1.399544 1.808053,1.734563 0.2752,0.139454 0.50036,0.278916 0.50036,0.309915 0,0.031 -0.40306,0.0414 -0.89569,0.02311 -0.49263,-0.01829 -0.90747,-3.56e-4 -0.92186,0.03985 -0.0574,0.160276 0.30763,0.691447 0.84314,1.226959 0.64775,0.647745 1.14856,1.000314 3.10471,2.185698 3.29236,1.995095 5.38143,3.570582 7.3108,5.513476 2.65498,2.673602 3.84729,4.95108 4.16551,7.956683 0.12294,1.161256 -0.28938,3.338667 -0.83599,4.414752 -0.10037,0.197593 -0.18249,0.415994 -0.18249,0.485331 0,0.06934 0.35949,0.361739 0.79886,0.64978 0.43937,0.28804 1.23409,0.956021 1.76603,1.484402 0.84927,0.843576 0.98922,0.946922 1.14804,0.847737 0.14691,-0.09175 0.21985,-0.07776 0.38848,0.07446 0.11418,0.103077 0.58637,0.434244 1.04932,0.735924 1.3499,0.879673 2.11361,1.897203 2.1107,2.812193 -0.002,0.51403 -0.41884,1.24549 -1.00229,1.75726 l -0.54363,0.47683 -0.001,3.88613 -0.001,3.88613 -3.80065,0.0667 c -2.09035,0.0367 -4.56319,0.0527 -5.4952,0.0356 l -1.69456,-0.0312 -0.0484,-3.78474 -0.0484,-3.78474 -0.59247,-0.493 c -0.90852,-0.75598 -1.36035,-1.50969 -1.7411,-2.90434 -0.0264,-0.09655 -1.47753,-0.116548 -7.025782,-0.09684 l -6.992566,0.02484 -0.115774,0.45386 c -0.219143,0.85909 -0.541457,1.36942 -1.413644,2.23827 l -0.8556,0.85232 v 3.61823 c 0,1.99002 -0.02645,3.68715 -0.05878,3.77139 -0.0521,0.13577 -0.457252,0.15317 -3.566635,0.15317 -1.929322,0 -3.536909,-0.029 -3.572414,-0.0646 z m -2.869268,-4.67384 c -0.05513,-0.10301 -0.100238,-0.35047 -0.100238,-0.5499 0,-0.19944 -0.04995,-0.50075 -0.110998,-0.66957 -0.144625,-0.39996 -0.04287,-0.77822 0.302172,-1.12326 0.377879,-0.37788 0.711891,-0.36271 1.125737,0.0511 0.265787,0.26579 0.329228,0.40463 0.329228,0.72052 0,0.21521 -0.04357,0.41823 -0.09683,0.45114 -0.05326,0.0329 -0.09683,0.28822 -0.09683,0.56734 0,0.27912 -0.05229,0.55978 -0.116198,0.62369 -0.06391,0.0639 -0.345609,0.1162 -0.626,0.1162 -0.404922,0 -0.530422,-0.0385 -0.61004,-0.1873 z"
           style="fill:#b69548;stroke-width:0.09683172" />
        <path
           inkscape:connector-curvature="0"
           id="path33"
           d="m 92.628862,110.98996 c -0.03551,-0.0355 -0.06455,-0.6637 -0.06455,-1.39599 v -1.33143 l -0.266287,-0.19397 c -0.243007,-0.17702 -0.265926,-0.24757 -0.262157,-0.80694 0.0049,-0.72832 0.161338,-1.23329 0.510654,-1.64843 0.330755,-0.39308 1.057296,-0.85275 1.347834,-0.85275 0.520902,0 1.410902,0.66205 1.738596,1.2933 0.08692,0.16743 0.179029,0.62818 0.20469,1.02389 0.04549,0.70157 0.03969,0.72502 -0.233486,0.94272 l -0.28014,0.22326 -0.03329,1.40545 -0.03329,1.40544 h -1.28201 c -0.705105,0 -1.31106,-0.029 -1.346564,-0.0645 z m 5.037021,0.002 c -0.03648,-0.0365 -0.06939,-1.0068 -0.07313,-2.15627 -0.0037,-1.14947 -0.03642,-2.1634 -0.07262,-2.25316 -0.0362,-0.0898 -0.218328,-0.26616 -0.404729,-0.39198 l -0.338911,-0.22877 5.76e-4,-1.15733 c 4.95e-4,-1.05221 0.02416,-1.20777 0.2603,-1.71274 0.461805,-0.9875 1.736007,-2.02476 2.656932,-2.16286 0.473309,-0.071 1.054619,0.1534 1.783389,0.68837 1.04122,0.76433 1.54445,1.85591 1.54445,3.35016 0,0.91639 -0.075,1.08191 -0.6351,1.40143 -0.17536,0.10005 -0.19122,0.25917 -0.23639,2.37238 l -0.0484,2.26514 -2.185018,0.026 c -1.201756,0.0143 -2.214858,-0.004 -2.251337,-0.0403 z m 6.711897,-1.24266 v -1.31077 l -0.2905,-0.30398 c -0.32585,-0.34097 -0.37922,-0.80545 -0.18237,-1.58721 0.19958,-0.79258 1.21401,-1.68982 1.91054,-1.68982 0.38313,0 1.15174,0.53312 1.51263,1.0492 0.25884,0.37014 0.29754,0.51473 0.32721,1.2225 0.0315,0.75152 0.0192,0.81284 -0.19367,0.96164 -0.21603,0.15105 -0.22971,0.22733 -0.27572,1.5372 l -0.0484,1.37827 -1.37985,0.0269 -1.37985,0.0269 z m 5.03525,-2.45592 v -3.66701 l -0.71034,-0.58301 c -1.02577,-0.8419 -1.4707,-1.55841 -1.86531,-3.00386 -0.0263,-0.09654 -1.47753,-0.116543 -7.025786,-0.09683 l -6.992566,0.02484 -0.115774,0.45386 c -0.06368,0.24962 -0.213763,0.65628 -0.333528,0.90368 -0.245238,0.5066 -1.114496,1.48862 -1.683958,1.90241 l -0.377648,0.27441 h -3.4579 -3.457901 l -0.347828,-0.23604 c -0.332778,-0.22583 -0.425346,-0.23735 -2.139389,-0.26629 l -1.79156,-0.0302 -0.399954,-0.38732 c -0.569006,-0.55104 -0.808589,-1.05261 -0.809447,-1.69456 -0.0013,-0.978741 0.583841,-1.771777 2.0062,-2.718946 0.488902,-0.325565 0.982334,-0.678155 1.096516,-0.783532 0.178145,-0.164405 0.236077,-0.173812 0.408264,-0.06628 0.182205,0.113787 0.234362,0.08555 0.567051,-0.307032 0.201514,-0.237791 0.518899,-0.57837 0.7053,-0.756847 0.427197,-0.409033 1.78435,-1.434114 2.146927,-1.621611 0.150626,-0.07789 0.273866,-0.211355 0.273866,-0.296585 0,-0.08523 -0.14967,-0.530747 -0.332599,-0.990038 -0.681858,-1.711982 -0.815153,-3.820856 -0.352681,-5.57983 0.465647,-1.771052 1.80036,-3.924741 3.512005,-5.666966 1.68231,-1.712363 3.09023,-2.838997 6.711199,-5.370377 3.19528,-2.233786 3.863543,-2.791831 4.784975,-3.995781 0.173231,-0.226344 0.351139,-0.411535 0.395353,-0.411535 0.04421,0 0.219653,0.22634 0.389873,0.502978 0.61892,1.005875 1.37294,1.615402 3.87089,3.129102 3.29236,1.995095 5.38143,3.570582 7.3108,5.513476 2.65498,2.673602 3.84729,4.95108 4.16551,7.956683 0.12294,1.161256 -0.28938,3.338668 -0.83599,4.414753 -0.10037,0.197593 -0.18249,0.415994 -0.18249,0.485331 0,0.06934 0.35949,0.361739 0.79886,0.64978 0.43937,0.28804 1.23409,0.956021 1.76603,1.484402 0.84927,0.843576 0.98922,0.946922 1.14804,0.847737 0.14691,-0.09175 0.21985,-0.07776 0.38848,0.07446 0.11418,0.103077 0.58637,0.434244 1.04932,0.735924 1.3499,0.879673 2.11361,1.897204 2.1107,2.812194 -0.001,0.4652 -0.41078,1.22621 -0.90212,1.6773 l -0.44825,0.41154 h -1.72632 c -1.69668,0 -1.73205,0.004 -2.05984,0.246 l -0.33352,0.246 -0.0484,3.69989 -0.0484,3.6999 -3.41331,0.0254 -3.41332,0.0255 z m -25.347215,-0.91076 c -0.05382,-0.0666 -0.128107,-0.34621 -0.165092,-0.62142 -0.05794,-0.43113 -0.03934,-0.52829 0.134405,-0.70203 0.31714,-0.31714 0.648062,-0.25697 0.866272,0.15752 0.130388,0.24767 -0.01512,1.08655 -0.209957,1.21041 -0.179036,0.11382 -0.517089,0.0898 -0.625628,-0.0445 z m 1.970371,0 c -0.241177,-0.85063 -0.253453,-0.9507 -0.142486,-1.16141 0.145243,-0.27579 0.272177,-0.36034 0.543769,-0.36221 0.346973,-0.002 0.536526,0.38602 0.456871,0.93616 -0.08367,0.57787 -0.183628,0.7085 -0.542159,0.7085 -0.154922,0 -0.29712,-0.0545 -0.315995,-0.12104 z m 2.209875,0.0469 c -0.05834,-0.0391 -0.130884,-0.22365 -0.161217,-0.41005 -0.03033,-0.1864 -0.08226,-0.40723 -0.1154,-0.49074 -0.085,-0.21419 0.302007,-0.67124 0.568367,-0.67124 0.399415,0 0.569422,0.30806 0.491164,0.89001 -0.03802,0.28273 -0.113157,0.56852 -0.166972,0.63509 -0.107428,0.13289 -0.448979,0.15892 -0.615942,0.0469 z m 29.901189,-0.13892 c -0.0639,-0.0639 -0.1162,-0.28958 -0.1162,-0.50149 0,-0.21192 -0.0499,-0.52343 -0.111,-0.69226 -0.14228,-0.39347 -0.0445,-0.77526 0.2743,-1.07068 0.32164,-0.29808 0.52393,-0.29489 0.89113,0.0141 0.32341,0.27213 0.49861,0.85223 0.31335,1.03749 -0.0599,0.0599 -0.10897,0.3312 -0.10897,0.60281 0,0.59759 -0.11149,0.72624 -0.6294,0.72624 -0.21836,0 -0.4493,-0.0523 -0.51321,-0.1162 z m -37.622353,-0.0451 c -0.03551,-0.0355 -0.06455,-0.27259 -0.06455,-0.52686 0,-0.25426 -0.04357,-0.48923 -0.09683,-0.52215 -0.05326,-0.0329 -0.09683,-0.23355 -0.09683,-0.44586 0,-0.73409 0.773781,-1.13735 1.234755,-0.64349 0.29489,0.31592 0.357324,0.67735 0.177185,1.0257 -0.08422,0.16286 -0.153128,0.49436 -0.153128,0.73667 v 0.44055 h -0.46802 c -0.257411,0 -0.497069,-0.029 -0.532574,-0.0646 z"
           style="fill:#a6863d;stroke-width:0.09683172" />
        <path
           inkscape:connector-curvature="0"
           id="path31"
           d="m 92.628862,110.98996 c -0.03551,-0.0355 -0.06455,-0.66633 -0.06455,-1.40183 0,-1.30824 -0.0051,-1.34061 -0.234624,-1.491 -0.461173,-0.30218 -0.396594,-1.57903 0.117336,-2.31995 0.318433,-0.45907 1.107872,-1.01673 1.439317,-1.01673 0.611253,0 1.672602,0.91699 1.865527,1.61179 0.057,0.2053 0.103886,0.62018 0.104182,0.92197 4.95e-4,0.48736 -0.02923,0.57036 -0.265747,0.74247 l -0.266287,0.19377 -0.03135,1.41203 -0.03135,1.41203 H 93.97737 c -0.70617,0 -1.312996,-0.029 -1.3485,-0.0645 z m 5.037021,0.002 c -0.03648,-0.0365 -0.06939,-1.0068 -0.07313,-2.15627 -0.0037,-1.14947 -0.03642,-2.1634 -0.07262,-2.25316 -0.0362,-0.0898 -0.218328,-0.26567 -0.404729,-0.3909 l -0.338911,-0.22769 -0.02785,-0.95165 c -0.03291,-1.1246 0.118942,-1.7525 0.590825,-2.44303 0.418409,-0.61227 1.375545,-1.33626 2.045989,-1.5476 0.657853,-0.20737 1.024763,-0.11813 1.890123,0.45974 1.18978,0.7945 1.74655,1.90578 1.74655,3.48598 0,0.91639 -0.075,1.08191 -0.6351,1.40143 -0.17535,0.10005 -0.19122,0.25917 -0.23637,2.37238 l -0.0484,2.26514 -2.185013,0.026 c -1.201757,0.0143 -2.214859,-0.004 -2.251339,-0.0403 z m 6.711897,-1.24266 v -1.31077 l -0.2905,-0.30398 c -0.32585,-0.34097 -0.37922,-0.80545 -0.18237,-1.58721 0.19958,-0.79258 1.21401,-1.68982 1.91054,-1.68982 0.38313,0 1.15174,0.53312 1.51263,1.0492 0.25884,0.37014 0.29754,0.51473 0.32721,1.2225 0.0315,0.75152 0.0192,0.81284 -0.19367,0.96164 -0.21603,0.15105 -0.22971,0.22733 -0.27572,1.5372 l -0.0484,1.37827 -1.37985,0.0269 -1.37985,0.0269 z m -20.159407,-3.46339 c -0.228326,-0.18152 -0.300781,-0.86006 -0.119477,-1.1189 0.172614,-0.24644 0.448819,-0.27601 0.622576,-0.0667 0.08379,0.10097 0.10041,0.30169 0.05397,0.6518 -0.08187,0.61714 -0.249789,0.77803 -0.557065,0.53375 z m 1.985554,0.0451 c -0.176221,-0.11205 -0.274143,-1.05442 -0.127879,-1.23066 0.164276,-0.19794 0.420616,-0.18352 0.618159,0.0348 0.126415,0.13968 0.148775,0.2769 0.09862,0.6052 -0.09222,0.60362 -0.277042,0.78901 -0.5889,0.5907 z m 2.130298,0 c -0.176221,-0.11205 -0.274143,-1.05442 -0.127879,-1.23066 0.165966,-0.19997 0.421161,-0.18292 0.624465,0.0417 0.134063,0.14813 0.155292,0.27548 0.100892,0.6052 -0.09835,0.59612 -0.28746,0.78087 -0.597478,0.58373 z m 22.402715,-0.0882 c -0.17908,-0.64967 -0.16558,-0.88601 0.066,-1.15524 0.20926,-0.24328 0.25947,-0.25958 0.48426,-0.15716 0.30366,0.13836 0.38141,0.414 0.27988,0.99234 -0.0728,0.41484 -0.0934,0.43716 -0.42922,0.46531 -0.27318,0.0229 -0.36361,-0.01 -0.40092,-0.14525 z m 2.11058,-0.1935 c -0.0343,-0.20275 -0.081,-0.43805 -0.10395,-0.52288 -0.0493,-0.18246 0.30749,-0.66883 0.49061,-0.66883 0.0701,0 0.22556,0.0794 0.34543,0.17648 0.20211,0.16366 0.21168,0.21814 0.13176,0.75044 -0.0862,0.57385 -0.0862,0.57398 -0.44386,0.6037 -0.34587,0.0288 -0.35975,0.0175 -0.41999,-0.33891 z m 2.03245,0.23656 c -0.0255,-0.0666 -0.0568,-0.35778 -0.0696,-0.64713 -0.0215,-0.48679 -0.003,-0.53743 0.24874,-0.67783 0.26237,-0.14639 0.28038,-0.14202 0.51188,0.12405 0.13197,0.15167 0.22038,0.34776 0.19646,0.43574 -0.0239,0.088 -0.071,0.32338 -0.10473,0.52309 -0.0571,0.33845 -0.0842,0.36312 -0.39882,0.36312 -0.18566,0 -0.35844,-0.0545 -0.38395,-0.12104 z m -34.350609,-0.0359 c -0.03796,-0.038 -0.06902,-0.29885 -0.06902,-0.57974 0,-0.2809 -0.04357,-0.53765 -0.09683,-0.57057 -0.182888,-0.11303 -0.0987,-0.61233 0.153855,-0.91247 0.311187,-0.36983 0.608572,-0.38057 0.954641,-0.0345 0.228091,0.22809 0.25545,0.31575 0.204,0.65362 -0.03268,0.2146 -0.09081,0.62985 -0.129175,0.92277 l -0.06976,0.53257 -0.439348,0.0287 c -0.241641,0.0158 -0.470406,-0.002 -0.508366,-0.0403 z m 37.556199,-0.15778 c -0.0722,-0.34189 -0.16111,-1.05889 -0.17383,-1.40182 -0.0124,-0.3332 0.22455,-0.67502 0.55506,-0.80088 0.23407,-0.0891 0.67904,0.11797 0.8202,0.38174 0.12752,0.23827 0.12941,0.84706 0.003,0.92526 -0.0533,0.0329 -0.0968,0.29693 -0.0968,0.58671 v 0.52686 h -0.53073 c -0.47219,0 -0.5358,-0.024 -0.57674,-0.21787 z M 83.044491,103.2656 c -0.332778,-0.22583 -0.425346,-0.23735 -2.139389,-0.26629 l -1.79156,-0.0302 -0.399954,-0.38732 c -0.569006,-0.55105 -0.808589,-1.05261 -0.809447,-1.69456 -0.0013,-0.97874 0.583841,-1.771776 2.0062,-2.718945 0.488902,-0.325565 0.982334,-0.678155 1.096516,-0.783532 0.178145,-0.164405 0.236077,-0.173812 0.408264,-0.06628 0.182205,0.113787 0.234362,0.08555 0.567051,-0.307032 0.201514,-0.237791 0.518899,-0.57837 0.7053,-0.756847 0.427197,-0.409033 1.78435,-1.434114 2.146927,-1.621611 0.150626,-0.07789 0.273866,-0.211355 0.273866,-0.296585 0,-0.08523 -0.14967,-0.530747 -0.332599,-0.990038 -0.681858,-1.711982 -0.815153,-3.820856 -0.352681,-5.57983 0.465647,-1.771052 1.80036,-3.924741 3.512005,-5.666966 1.684148,-1.714235 3.095953,-2.843708 6.711199,-5.3691 3.160054,-2.207421 3.895429,-2.81488 4.662901,-3.851811 0.187234,-0.252972 0.41584,-0.45995 0.508013,-0.45995 0.09566,0 0.264427,0.172296 0.393227,0.401473 0.29246,0.520358 1.1854,1.409996 1.90487,1.897811 0.31241,0.211825 1.19985,0.768009 1.97208,1.235964 3.29236,1.995095 5.38143,3.570582 7.3108,5.513476 2.65498,2.673602 3.84729,4.95108 4.16551,7.956683 0.12294,1.161256 -0.28938,3.338668 -0.83599,4.414753 -0.10037,0.197593 -0.18249,0.415994 -0.18249,0.485331 0,0.06934 0.35949,0.361739 0.79886,0.64978 0.43937,0.28804 1.23409,0.956021 1.76603,1.484402 0.84927,0.843576 0.98922,0.946922 1.14804,0.847737 0.14691,-0.09175 0.21985,-0.07776 0.38848,0.07446 0.11418,0.103077 0.58637,0.434244 1.04932,0.735924 1.3499,0.879673 2.11361,1.897203 2.1107,2.812193 -0.001,0.4652 -0.41078,1.22621 -0.90212,1.6773 l -0.44825,0.41154 h -1.72632 c -1.68936,0 -1.73335,0.005 -2.05445,0.24208 l -0.32812,0.24208 h -3.54512 -3.54512 l -0.63357,-0.52261 c -0.94771,-0.78171 -1.40031,-1.52666 -1.78609,-2.93976 -0.0263,-0.09655 -1.47753,-0.116548 -7.025786,-0.09684 l -6.992566,0.02484 -0.115774,0.45386 c -0.06368,0.24963 -0.213763,0.65628 -0.333528,0.90368 -0.245238,0.5066 -1.114496,1.48862 -1.683958,1.90241 l -0.377648,0.27441 h -3.4579 -3.457901 z"
           style="fill:#00b4b3;stroke-width:0.09683172" />
        <path
           inkscape:connector-curvature="0"
           id="path29"
           d="m 92.628862,110.98996 c -0.03551,-0.0355 -0.06455,-0.66633 -0.06455,-1.40183 0,-1.30824 -0.0051,-1.34061 -0.234624,-1.491 -0.461173,-0.30218 -0.396594,-1.57903 0.117336,-2.31995 0.318433,-0.45907 1.107872,-1.01673 1.439317,-1.01673 0.611253,0 1.672602,0.91699 1.865527,1.61179 0.057,0.2053 0.103886,0.62018 0.104182,0.92197 4.95e-4,0.48736 -0.02923,0.57036 -0.265747,0.74247 l -0.266287,0.19377 -0.03135,1.41203 -0.03135,1.41203 H 93.97737 c -0.70617,0 -1.312996,-0.029 -1.3485,-0.0645 z m 5.037021,0.002 c -0.03648,-0.0365 -0.06939,-1.0068 -0.07313,-2.15627 -0.0037,-1.14947 -0.03642,-2.1634 -0.07262,-2.25316 -0.0362,-0.0898 -0.218328,-0.26567 -0.404729,-0.3909 l -0.338911,-0.22769 -0.02785,-0.95165 c -0.03291,-1.1246 0.118942,-1.7525 0.590825,-2.44303 0.418409,-0.61227 1.375545,-1.33626 2.045989,-1.5476 0.657853,-0.20737 1.024763,-0.11813 1.890123,0.45974 1.18978,0.7945 1.74655,1.90578 1.74655,3.48598 0,0.91639 -0.075,1.08191 -0.6351,1.40143 -0.17535,0.10005 -0.19122,0.25917 -0.23637,2.37238 l -0.0484,2.26514 -2.185013,0.026 c -1.201757,0.0143 -2.214859,-0.004 -2.251339,-0.0403 z m 6.711897,-1.24266 v -1.31077 l -0.2905,-0.30398 c -0.32585,-0.34097 -0.37922,-0.80545 -0.18237,-1.58721 0.19958,-0.79258 1.21401,-1.68982 1.91054,-1.68982 0.38313,0 1.15174,0.53312 1.51263,1.0492 0.25884,0.37014 0.29754,0.51473 0.32721,1.2225 0.0315,0.75152 0.0192,0.81284 -0.19367,0.96164 -0.21603,0.15105 -0.22971,0.22733 -0.27572,1.5372 l -0.0484,1.37827 -1.37985,0.0269 -1.37985,0.0269 z m -20.159407,-3.46339 c -0.228326,-0.18152 -0.300781,-0.86006 -0.119477,-1.1189 0.172614,-0.24644 0.448819,-0.27601 0.622576,-0.0667 0.08379,0.10097 0.10041,0.30169 0.05397,0.6518 -0.08187,0.61714 -0.249789,0.77803 -0.557065,0.53375 z m 1.985554,0.0451 c -0.176221,-0.11205 -0.274143,-1.05442 -0.127879,-1.23066 0.164276,-0.19794 0.420616,-0.18352 0.618159,0.0348 0.126415,0.13968 0.148775,0.2769 0.09862,0.6052 -0.09222,0.60362 -0.277042,0.78901 -0.5889,0.5907 z m 2.130298,0 c -0.176221,-0.11205 -0.274143,-1.05442 -0.127879,-1.23066 0.165966,-0.19997 0.421161,-0.18292 0.624465,0.0417 0.134063,0.14813 0.155292,0.27548 0.100892,0.6052 -0.09835,0.59612 -0.28746,0.78087 -0.597478,0.58373 z m 22.402715,-0.0882 c -0.17908,-0.64967 -0.16558,-0.88601 0.066,-1.15524 0.20926,-0.24328 0.25947,-0.25958 0.48426,-0.15716 0.30366,0.13836 0.38141,0.414 0.27988,0.99234 -0.0728,0.41484 -0.0934,0.43716 -0.42922,0.46531 -0.27318,0.0229 -0.36361,-0.01 -0.40092,-0.14525 z m 2.11058,-0.1935 c -0.0343,-0.20275 -0.081,-0.43805 -0.10395,-0.52288 -0.0493,-0.18246 0.30749,-0.66883 0.49061,-0.66883 0.0701,0 0.22556,0.0794 0.34543,0.17648 0.20211,0.16366 0.21168,0.21814 0.13176,0.75044 -0.0862,0.57385 -0.0862,0.57398 -0.44386,0.6037 -0.34587,0.0288 -0.35975,0.0175 -0.41999,-0.33891 z m 2.03245,0.23656 c -0.0255,-0.0666 -0.0568,-0.35778 -0.0696,-0.64713 -0.0215,-0.48679 -0.003,-0.53743 0.24874,-0.67783 0.26237,-0.14639 0.28038,-0.14202 0.51188,0.12405 0.13197,0.15167 0.22038,0.34776 0.19646,0.43574 -0.0239,0.088 -0.071,0.32338 -0.10473,0.52309 -0.0571,0.33845 -0.0842,0.36312 -0.39882,0.36312 -0.18566,0 -0.35844,-0.0545 -0.38395,-0.12104 z m -34.350609,-0.0359 c -0.03796,-0.038 -0.06902,-0.29885 -0.06902,-0.57974 0,-0.2809 -0.04357,-0.53765 -0.09683,-0.57057 -0.182888,-0.11303 -0.0987,-0.61233 0.153855,-0.91247 0.311187,-0.36983 0.608572,-0.38057 0.954641,-0.0345 0.228091,0.22809 0.25545,0.31575 0.204,0.65362 -0.03268,0.2146 -0.09081,0.62985 -0.129175,0.92277 l -0.06976,0.53257 -0.439348,0.0287 c -0.241641,0.0158 -0.470406,-0.002 -0.508366,-0.0403 z m 37.556199,-0.15778 c -0.0722,-0.34189 -0.16111,-1.05889 -0.17383,-1.40182 -0.0124,-0.3332 0.22455,-0.67502 0.55506,-0.80088 0.23407,-0.0891 0.67904,0.11797 0.8202,0.38174 0.12752,0.23827 0.12941,0.84706 0.003,0.92526 -0.0533,0.0329 -0.0968,0.29693 -0.0968,0.58671 v 0.52686 h -0.53073 c -0.47219,0 -0.5358,-0.024 -0.57674,-0.21787 z m -33.001503,-2.66274 c 0.971948,-0.0158 2.562409,-0.0158 3.534358,0 0.971948,0.0158 0.176718,0.0287 -1.767179,0.0287 -1.943897,0 -2.739127,-0.0129 -1.767179,-0.0287 z m 24.183723,-0.0243 c 0.0382,-0.0617 1.3654,-0.0971 3.66111,-0.0975 l 3.60127,-5.5e-4 0.47545,-0.40749 c 1.13529,-0.973 1.78818,-2.33502 1.66844,-3.480607 -0.0331,-0.31663 -0.17432,-0.861033 -0.31384,-1.209784 -0.23185,-0.579528 -0.24043,-0.647336 -0.0998,-0.788017 0.14068,-0.140681 0.17284,-0.136748 0.37379,0.04573 0.12093,0.109813 0.54668,0.410696 0.94611,0.668628 1.38322,0.893217 2.13227,1.87588 2.12935,2.79345 -0.002,0.47998 -0.41615,1.2387 -0.91863,1.681 l -0.46334,0.40784 h -1.6621 c -1.62087,0 -1.67026,0.006 -1.99024,0.24208 l -0.32812,0.24208 h -3.56967 c -2.35513,0 -3.54931,-0.0329 -3.50983,-0.0968 z m -30.427745,-0.90972 c -0.591665,-0.59703 -0.800836,-1.03585 -0.799577,-1.67742 0.0017,-0.87683 0.74283,-1.792711 2.177805,-2.691387 0.319545,-0.200117 0.681328,-0.454871 0.803962,-0.566119 0.354809,-0.32186 0.445486,-0.03589 0.164464,0.518683 -0.719482,1.41983 -0.423141,3.047213 0.794352,4.362253 l 0.533628,0.57638 -1.583946,-0.006 -1.583945,-0.006 z m 17.489846,-2.745626 -3.448389,-0.02668 -0.05996,-0.506304 C 92.668336,97.92333 91.515263,96.512857 89.350996,94.97156 88.647681,94.470688 87.79953,93.805362 87.466217,93.493052 l -0.606024,-0.567833 -0.471088,0.483649 c -0.259099,0.266007 -0.608555,0.554736 -0.776569,0.641619 l -0.305481,0.157971 -0.182883,-0.364281 c -0.648291,-1.291325 -0.968923,-3.216519 -0.790091,-4.744009 0.299892,-2.561532 1.416735,-4.549508 4.014552,-7.145888 1.703398,-1.702456 2.844173,-2.622289 5.910233,-4.765551 3.508921,-2.452836 4.717141,-3.456311 5.247424,-4.358198 0.271709,-0.462113 0.464674,-0.524667 0.55148,-0.178777 0.0924,0.368322 0.77004,1.159874 1.48478,1.73449 0.36108,0.290292 1.39728,0.975335 2.30265,1.522319 1.96399,1.186546 2.74522,1.703287 4.17175,2.759389 5.41575,4.009456 7.90164,8.159364 7.39467,12.344553 -0.12071,0.996477 -0.4618,2.196692 -0.8331,2.931449 l -0.2345,0.464059 -0.39213,-0.220389 c -0.21567,-0.121212 -0.5683,-0.411508 -0.78362,-0.645105 l -0.39149,-0.424719 -0.23773,0.303757 c -0.13074,0.167064 -0.89848,0.771425 -1.70608,1.343026 -2.33597,1.653347 -3.60259,3.0687 -3.78973,4.23472 -0.0342,0.213029 -0.0823,0.485369 -0.10685,0.605198 l -0.0447,0.217871 -3.55672,-0.02295 c -1.9562,-0.01263 -5.10849,-0.03495 -7.005105,-0.04962 z"
           style="fill:#8e6d46;stroke-width:0.09683172" />
        <path
           inkscape:connector-curvature="0"
           id="path27"
           d="m 92.725694,110.89313 c -0.03551,-0.0355 -0.06455,-0.64763 -0.06455,-1.36027 0,-1.25772 -0.0071,-1.30229 -0.242079,-1.52007 -0.211635,-0.19613 -0.24208,-0.30564 -0.24208,-0.87072 0,-0.98997 0.410478,-1.65692 1.299518,-2.11147 0.464781,-0.23763 0.877687,-0.14652 1.438788,0.31747 0.501651,0.41483 0.767447,0.97683 0.821196,1.73634 0.04244,0.59967 0.03031,0.64424 -0.256588,0.94323 l -0.30113,0.31382 v 1.30811 1.30811 h -1.194258 c -0.656842,0 -1.223308,-0.029 -1.258812,-0.0645 z m 4.970694,-2.06119 c 0,-2.30767 -0.04388,-2.54785 -0.494098,-2.7048 -0.355515,-0.12393 -0.41403,-0.37805 -0.355609,-1.54433 0.05598,-1.11759 0.257547,-1.6161 0.967566,-2.39297 0.500999,-0.54818 1.635346,-1.20583 2.079861,-1.20583 0.389302,0 1.254692,0.46778 1.818232,0.98283 0.76385,0.69811 1.13888,1.50051 1.19423,2.55508 0.0613,1.16807 -0.0169,1.48165 -0.41048,1.6461 -0.18649,0.0779 -0.34572,0.2269 -0.38024,0.35577 -0.0327,0.12194 -0.06,1.16945 -0.0607,2.3278 l -10e-4,2.10609 h -2.17871 -2.178714 z m 6.778222,0.82466 v -1.3067 l -0.2905,-0.29717 c -0.23013,-0.23542 -0.29038,-0.38199 -0.28995,-0.70537 0.001,-0.90414 0.35918,-1.57915 1.10233,-2.07854 0.52103,-0.35013 0.79878,-0.38634 1.26529,-0.16497 0.8302,0.39395 1.30601,1.18883 1.30932,2.1873 0.002,0.57768 -0.022,0.65829 -0.23723,0.7993 -0.23291,0.15261 -0.24007,0.19262 -0.26628,1.48782 l -0.0269,1.331 -1.28302,0.027 -1.28302,0.027 z m 6.45619,-3.41947 c -0.1282,-0.21672 -0.16999,-0.91479 -0.0625,-1.04429 0.26439,-0.31856 0.75377,10e-4 0.64099,0.41855 -0.0246,0.0912 -0.0714,0.28562 -0.10404,0.43208 -0.0563,0.25312 -0.36477,0.37903 -0.47443,0.19366 z m 2.13372,0.006 c -0.0255,-0.043 -0.0773,-0.26486 -0.11504,-0.49305 -0.0756,-0.45686 0.0439,-0.69868 0.34526,-0.69868 0.26655,0 0.38291,0.30427 0.30093,0.78688 -0.0561,0.33014 -0.11745,0.43008 -0.27835,0.45326 -0.11353,0.0164 -0.22729,-0.005 -0.2528,-0.0484 z m 1.92428,-0.0472 c -0.20267,-0.65417 -0.10597,-1.14457 0.22568,-1.14457 0.31758,0 0.42547,0.24249 0.33327,0.74908 -0.0679,0.37339 -0.12544,0.46723 -0.30165,0.49232 -0.11973,0.017 -0.23552,-0.0265 -0.2573,-0.0968 z m -34.367071,-0.0472 c -0.03551,-0.0355 -0.06455,-0.27259 -0.06455,-0.52686 0,-0.25427 -0.04357,-0.48923 -0.09683,-0.52215 -0.185919,-0.1149 -0.102716,-0.63232 0.140846,-0.87588 0.300656,-0.30066 0.540461,-0.30111 0.821881,-0.002 0.183723,0.19556 0.210586,0.29953 0.15637,0.6052 -0.036,0.20299 -0.08869,0.59783 -0.117082,0.87743 l -0.05162,0.50837 H 81.04851 c -0.199225,0 -0.391276,-0.029 -0.426781,-0.0645 z m 3.560301,-0.37967 c -0.0518,-0.34545 -0.03159,-0.47925 0.0909,-0.60174 0.143609,-0.14361 0.171031,-0.144 0.310627,-0.004 0.220876,0.22088 0.09596,1.05037 -0.158175,1.05037 -0.135729,0 -0.192191,-0.10307 -0.243351,-0.44422 z m 1.946098,-0.004 c -0.05278,-0.35198 -0.03295,-0.48236 0.09208,-0.6052 0.146951,-0.14438 0.17318,-0.13973 0.336864,0.0598 0.149946,0.18277 0.162181,0.27672 0.07881,0.60519 -0.144263,0.56836 -0.4184,0.53608 -0.507754,-0.0598 z m 2.140132,-0.002 c -0.06893,-0.50288 0.0707,-0.76599 0.349684,-0.65894 0.214494,0.0823 0.253591,0.22811 0.181219,0.67577 -0.04727,0.29238 -0.111268,0.39249 -0.265047,0.41458 -0.17446,0.0251 -0.211535,-0.0351 -0.265856,-0.43141 z m 29.92418,0.38615 c -0.0355,-0.0355 -0.0646,-0.25132 -0.0646,-0.4796 0,-0.22828 -0.0511,-0.52719 -0.11354,-0.66425 -0.14336,-0.31464 0.0989,-0.88614 0.42815,-1.01015 0.49948,-0.18811 0.95492,0.34548 0.80005,0.93733 -0.0381,0.14547 -0.0906,0.49326 -0.11674,0.77286 l -0.0475,0.50836 h -0.41065 c -0.22585,0 -0.43969,-0.029 -0.47519,-0.0646 z m -7.10907,-2.81594 c 0.99858,-0.0157 2.63262,-0.0157 3.63119,0 0.99858,0.0157 0.18156,0.0286 -1.81559,0.0286 -1.99716,0 -2.81417,-0.0129 -1.8156,-0.0286 z m 6.23387,-0.71232 c 1.37151,-1.46018 1.68801,-2.798791 1.04297,-4.411155 -0.23185,-0.579528 -0.24043,-0.647336 -0.0998,-0.788018 0.14068,-0.140681 0.17284,-0.136747 0.37379,0.04573 0.12093,0.109813 0.54668,0.410696 0.94611,0.668631 1.38322,0.893214 2.13227,1.875882 2.12935,2.793452 -0.001,0.4531 -0.40628,1.22381 -0.85562,1.62889 l -0.40281,0.36311 h -1.58952 c -0.87424,0 -1.66934,0.0281 -1.7669,0.0625 -0.10379,0.0366 -0.0115,-0.11409 0.22238,-0.36311 z m -38.432878,-0.0878 c -1.501024,-1.32125 -1.011901,-2.936853 1.333901,-4.405947 0.319545,-0.200117 0.681328,-0.454871 0.803962,-0.566119 0.354809,-0.32186 0.445486,-0.03589 0.164464,0.518683 -0.707198,1.395587 -0.425231,3.031023 0.742956,4.309203 l 0.486764,0.5326 h -1.54539 -1.545391 z M 96.329881,99.750384 92.881492,99.723704 92.821532,99.2174 C 92.668336,97.92391 91.515263,96.513437 89.350996,94.97214 88.647681,94.471268 87.79953,93.805942 87.466217,93.493632 l -0.606024,-0.567833 -0.471088,0.483649 c -0.259099,0.266007 -0.608555,0.554736 -0.776569,0.641619 l -0.305481,0.157971 -0.182883,-0.364281 c -0.648291,-1.291325 -0.968923,-3.216519 -0.790091,-4.744009 0.299892,-2.561532 1.416735,-4.549508 4.014552,-7.145888 1.703398,-1.702456 2.844173,-2.622289 5.910233,-4.765551 3.508921,-2.452836 4.717141,-3.456311 5.247424,-4.358198 0.133084,-0.226345 0.280286,-0.411535 0.327114,-0.411535 0.04683,0 0.157051,0.141616 0.244936,0.314703 0.48762,0.960347 1.46529,1.784368 3.76686,3.174864 1.96399,1.186546 2.74522,1.703287 4.17175,2.759389 5.41575,4.009456 7.90164,8.159364 7.39467,12.344553 -0.12071,0.996477 -0.4618,2.196692 -0.8331,2.931449 l -0.2345,0.464059 -0.39213,-0.220389 c -0.21567,-0.121212 -0.5683,-0.411508 -0.78362,-0.645105 l -0.39149,-0.424719 -0.23773,0.303757 c -0.13074,0.167064 -0.89848,0.771425 -1.70608,1.343026 -2.33597,1.653347 -3.60259,3.0687 -3.78973,4.23472 -0.0342,0.213029 -0.0823,0.485369 -0.10685,0.605198 l -0.0447,0.217871 -3.55672,-0.02295 c -1.9562,-0.01263 -5.10849,-0.03495 -7.005105,-0.04962 z"
           style="fill:#008f94;stroke-width:0.09683172" />
        <path
           inkscape:connector-curvature="0"
           id="path25"
           d="m 92.725694,110.89313 c -0.03551,-0.0355 -0.06455,-0.64763 -0.06455,-1.36027 0,-1.25772 -0.0071,-1.30229 -0.242079,-1.52007 -0.211635,-0.19613 -0.24208,-0.30564 -0.24208,-0.87072 0,-0.98997 0.410478,-1.65692 1.299518,-2.11147 0.464781,-0.23763 0.877687,-0.14652 1.438788,0.31747 0.501651,0.41483 0.767447,0.97683 0.821196,1.73634 0.04244,0.59967 0.03031,0.64424 -0.256588,0.94323 l -0.30113,0.31382 v 1.30811 1.30811 h -1.194258 c -0.656842,0 -1.223308,-0.029 -1.258812,-0.0645 z m 4.970694,-2.06119 c 0,-2.30767 -0.04388,-2.54785 -0.494098,-2.7048 -0.355515,-0.12393 -0.41403,-0.37805 -0.355609,-1.54433 0.05598,-1.11759 0.257547,-1.6161 0.967566,-2.39297 0.500999,-0.54818 1.635346,-1.20583 2.079861,-1.20583 0.389302,0 1.254692,0.46778 1.818232,0.98283 0.76385,0.69811 1.13888,1.50051 1.19423,2.55508 0.0613,1.16807 -0.0169,1.48165 -0.41048,1.6461 -0.18649,0.0779 -0.34572,0.2269 -0.38024,0.35577 -0.0327,0.12194 -0.06,1.16945 -0.0607,2.3278 l -10e-4,2.10609 h -2.17871 -2.178714 z m 6.778222,0.82466 v -1.3067 l -0.2905,-0.29717 c -0.23013,-0.23542 -0.29038,-0.38199 -0.28995,-0.70537 0.001,-0.90414 0.35918,-1.57915 1.10233,-2.07854 0.52103,-0.35013 0.79878,-0.38634 1.26529,-0.16497 0.8302,0.39395 1.30601,1.18883 1.30932,2.1873 0.002,0.57768 -0.022,0.65829 -0.23723,0.7993 -0.23291,0.15261 -0.24007,0.19262 -0.26628,1.48782 l -0.0269,1.331 -1.28302,0.027 -1.28302,0.027 z m 6.45619,-3.41947 c -0.1282,-0.21672 -0.16999,-0.91479 -0.0625,-1.04429 0.26439,-0.31856 0.75377,10e-4 0.64099,0.41855 -0.0246,0.0912 -0.0714,0.28562 -0.10404,0.43208 -0.0563,0.25312 -0.36477,0.37903 -0.47443,0.19366 z m 2.13372,0.006 c -0.0255,-0.043 -0.0773,-0.26486 -0.11504,-0.49305 -0.0756,-0.45686 0.0439,-0.69868 0.34526,-0.69868 0.26655,0 0.38291,0.30427 0.30093,0.78688 -0.0561,0.33014 -0.11745,0.43008 -0.27835,0.45326 -0.11353,0.0164 -0.22729,-0.005 -0.2528,-0.0484 z m 1.92428,-0.0472 c -0.20267,-0.65417 -0.10597,-1.14457 0.22568,-1.14457 0.31758,0 0.42547,0.24249 0.33327,0.74908 -0.0679,0.37339 -0.12544,0.46723 -0.30165,0.49232 -0.11973,0.017 -0.23552,-0.0265 -0.2573,-0.0968 z m -34.367071,-0.0472 c -0.03551,-0.0355 -0.06455,-0.27259 -0.06455,-0.52686 0,-0.25427 -0.04357,-0.48923 -0.09683,-0.52215 -0.185919,-0.1149 -0.102716,-0.63232 0.140846,-0.87588 0.300656,-0.30066 0.540461,-0.30111 0.821881,-0.002 0.183723,0.19556 0.210586,0.29953 0.15637,0.6052 -0.036,0.20299 -0.08869,0.59783 -0.117082,0.87743 l -0.05162,0.50837 H 81.04851 c -0.199225,0 -0.391276,-0.029 -0.426781,-0.0645 z m 3.560301,-0.37967 c -0.0518,-0.34545 -0.03159,-0.47925 0.0909,-0.60174 0.143609,-0.14361 0.171031,-0.144 0.310627,-0.004 0.220876,0.22088 0.09596,1.05037 -0.158175,1.05037 -0.135729,0 -0.192191,-0.10307 -0.243351,-0.44422 z m 1.946098,-0.004 c -0.05278,-0.35198 -0.03295,-0.48236 0.09208,-0.6052 0.146951,-0.14438 0.17318,-0.13973 0.336864,0.0598 0.149946,0.18277 0.162181,0.27672 0.07881,0.60519 -0.144263,0.56836 -0.4184,0.53608 -0.507754,-0.0598 z m 2.140132,-0.002 c -0.06893,-0.50288 0.0707,-0.76599 0.349684,-0.65894 0.214494,0.0823 0.253591,0.22811 0.181219,0.67577 -0.04727,0.29238 -0.111268,0.39249 -0.265047,0.41458 -0.17446,0.0251 -0.211535,-0.0351 -0.265856,-0.43141 z m 29.92418,0.38615 c -0.0355,-0.0355 -0.0646,-0.25132 -0.0646,-0.4796 0,-0.22828 -0.0511,-0.52719 -0.11354,-0.66425 -0.14336,-0.31464 0.0989,-0.88614 0.42815,-1.01015 0.49948,-0.18811 0.95492,0.34548 0.80005,0.93733 -0.0381,0.14547 -0.0906,0.49326 -0.11674,0.77286 l -0.0475,0.50836 h -0.41065 c -0.22585,0 -0.43969,-0.029 -0.47519,-0.0646 z"
           style="fill:#69442c;stroke-width:0.09683172" />
      </g>
    </g>
  </g>
</svg>
