<?xml version="1.0" encoding="UTF-8" standalone="no"?>
<svg
   xmlns:dc="http://purl.org/dc/elements/1.1/"
   xmlns:cc="http://creativecommons.org/ns#"
   xmlns:rdf="http://www.w3.org/1999/02/22-rdf-syntax-ns#"
   xmlns:svg="http://www.w3.org/2000/svg"
   xmlns="http://www.w3.org/2000/svg"
   xmlns:sodipodi="http://sodipodi.sourceforge.net/DTD/sodipodi-0.dtd"
   xmlns:inkscape="http://www.inkscape.org/namespaces/inkscape"
   height="24"
   viewBox="0 0 24 24"
   width="24"
   version="1.1"
   id="svg6"
   sodipodi:docname="notifications_none-24px.svg"
   inkscape:version="0.92.5 (2060ec1f9f, 2020-04-08)">
  <metadata
     id="metadata12">
    <rdf:RDF>
      <cc:Work
         rdf:about="">
        <dc:format>image/svg+xml</dc:format>
        <dc:type
           rdf:resource="http://purl.org/dc/dcmitype/StillImage" />
      </cc:Work>
    </rdf:RDF>
  </metadata>
  <defs
     id="defs10" />
  <sodipodi:namedview
     pagecolor="#ffffff"
     bordercolor="#666666"
     borderopacity="1"
     objecttolerance="10"
     gridtolerance="10"
     guidetolerance="10"
     inkscape:pageopacity="0"
     inkscape:pageshadow="2"
     inkscape:window-width="1920"
     inkscape:window-height="1015"
     id="namedview8"
     showgrid="false"
     inkscape:zoom="9.8333333"
     inkscape:cx="12"
     inkscape:cy="12"
     inkscape:window-x="0"
     inkscape:window-y="36"
     inkscape:window-maximized="1"
     inkscape:current-layer="svg6" />
  <path
     d="M0 0h24v24H0z"
     fill="none"
     id="path2" />
  <path
     d="m 12,18.40572 c 0.694491,0 1.262712,-0.56822 1.262712,-1.262712 h -2.525424 c 0,0.694492 0.568221,1.262712 1.262712,1.262712 z m 3.788136,-3.788135 v -3.15678 c 0,-1.9382627 -1.02911,-3.5608474 -2.841103,-3.9901694 v -0.429322 c 0,-0.5240255 -0.423007,-0.947034 -0.947033,-0.947034 -0.524026,0 -0.947034,0.4230085 -0.947034,0.947034 v 0.429322 C 9.2472881,7.8999576 8.2118644,9.5162288 8.2118644,11.460805 v 3.15678 l -1.2627118,1.262711 v 0.631357 H 17.050847 v -0.631357 z m -1.262713,0.631356 H 9.4745763 v -3.788136 c 0,-1.5657627 0.9533477,-2.8411017 2.5254237,-2.8411017 1.572076,0 2.525423,1.275339 2.525423,2.8411017 z"
     id="path4"
     style="fill:#333333;stroke-width:0.63135594"
     inkscape:connector-curvature="0" />
</svg>
