<?xml version="1.0" encoding="UTF-8" standalone="no"?>
<svg
   xmlns:dc="http://purl.org/dc/elements/1.1/"
   xmlns:cc="http://creativecommons.org/ns#"
   xmlns:rdf="http://www.w3.org/1999/02/22-rdf-syntax-ns#"
   xmlns:svg="http://www.w3.org/2000/svg"
   xmlns="http://www.w3.org/2000/svg"
   xmlns:sodipodi="http://sodipodi.sourceforge.net/DTD/sodipodi-0.dtd"
   xmlns:inkscape="http://www.inkscape.org/namespaces/inkscape"
   version="1.1"
   x="0px"
   y="0px"
   viewBox="0 0 24 30"
   enable-background="new 0 0 24 24"
   xml:space="preserve"
   id="svg26"
   sodipodi:docname="noun_Sunrise _395417.svg"
   inkscape:version="0.92.5 (2060ec1f9f, 2020-04-08)"><metadata
     id="metadata32"><rdf:RDF><cc:Work
         rdf:about=""><dc:format>image/svg+xml</dc:format><dc:type
           rdf:resource="http://purl.org/dc/dcmitype/StillImage" /></cc:Work></rdf:RDF></metadata><defs
     id="defs30" /><sodipodi:namedview
     pagecolor="#ffffff"
     bordercolor="#666666"
     borderopacity="1"
     objecttolerance="10"
     gridtolerance="10"
     guidetolerance="10"
     inkscape:pageopacity="0"
     inkscape:pageshadow="2"
     inkscape:window-width="640"
     inkscape:window-height="480"
     id="namedview28"
     showgrid="false"
     inkscape:zoom="7.8666667"
     inkscape:cx="12"
     inkscape:cy="15"
     inkscape:window-x="0"
     inkscape:window-y="36"
     inkscape:window-maximized="0"
     inkscape:current-layer="svg26" /><g
     id="g20"
     style="fill:#ffffff"><g
       id="g14"
       style="fill:#ffffff"><rect
         x="11"
         y="2"
         width="2"
         height="2"
         id="rect2"
         style="fill:#ffffff" /><rect
         x="17"
         y="3.6"
         transform="matrix(0.7071 0.7071 -0.7071 0.7071 8.5147 -11.3847)"
         width="2"
         height="2"
         id="rect4"
         style="fill:#ffffff" /><rect
         x="20"
         y="8"
         width="2"
         height="2"
         id="rect6"
         style="fill:#ffffff" /><rect
         x="2"
         y="8"
         width="2"
         height="2"
         id="rect8"
         style="fill:#ffffff" /><rect
         x="5"
         y="3.6"
         transform="matrix(0.7071 0.7071 -0.7071 0.7071 5 -2.8994)"
         width="2"
         height="2"
         id="rect10"
         style="fill:#ffffff" /><path
         d="M19,12c-0.1-3.8-3.2-7-7-7s-6.9,3.2-7,7H19z"
         id="path12"
         style="fill:#ffffff" /></g><path
       d="M18,20c-1.1,0-2-0.9-2-2h-2c0,1.1-0.9,2-2,2c-1.1,0-2-0.9-2-2H8c0,1.1-0.9,2-2,2c-1.1,0-2-0.9-2-2H2c0,2.2,1.8,4,4,4   c1.2,0,2.3-0.5,3-1.4c0.7,0.8,1.8,1.4,3,1.4c1.2,0,2.3-0.5,3-1.4c0.7,0.8,1.8,1.4,3,1.4c2.2,0,4-1.8,4-4h-2C20,19.1,19.1,20,18,20z   "
       id="path16"
       style="fill:#ffffff" /><path
       d="M6,17c1.2,0,2.3-0.5,3-1.4c0.7,0.8,1.8,1.4,3,1.4c1.2,0,2.3-0.5,3-1.4c0.7,0.8,1.8,1.4,3,1.4c2.2,0,4-1.8,4-4h-2   c0,1.1-0.9,2-2,2c-1.1,0-2-0.9-2-2h-2c0,1.1-0.9,2-2,2c-1.1,0-2-0.9-2-2H8c0,1.1-0.9,2-2,2c-1.1,0-2-0.9-2-2H2C2,15.2,3.8,17,6,17z   "
       id="path18"
       style="fill:#ffffff" /></g><text
     x="0"
     y="39"
     fill="#000000"
     font-size="5px"
     font-weight="bold"
     font-family="'Helvetica Neue', Helvetica, Arial-Unicode, Arial, Sans-serif"
     id="text22"
     style="fill:#ffffff;">Created by Creative Stall</text>
<text
     x="0"
     y="44"
     fill="#000000"
     font-size="5px"
     font-weight="bold"
     font-family="'Helvetica Neue', Helvetica, Arial-Unicode, Arial, Sans-serif"
     id="text24"
     style="fill:#ffffff;">from the Noun Project</text>
</svg>