<?xml version="1.0" encoding="UTF-8" standalone="no"?>
<svg
   xmlns:dc="http://purl.org/dc/elements/1.1/"
   xmlns:cc="http://creativecommons.org/ns#"
   xmlns:rdf="http://www.w3.org/1999/02/22-rdf-syntax-ns#"
   xmlns:svg="http://www.w3.org/2000/svg"
   xmlns="http://www.w3.org/2000/svg"
   xmlns:sodipodi="http://sodipodi.sourceforge.net/DTD/sodipodi-0.dtd"
   xmlns:inkscape="http://www.inkscape.org/namespaces/inkscape"
   version="1.1"
   x="0px"
   y="0px"
   viewBox="0 0 24 30"
   enable-background="new 0 0 24 24"
   xml:space="preserve"
   id="svg24"
   sodipodi:docname="noun_Sea Sunset_395675.svg"
   inkscape:version="0.92.5 (2060ec1f9f, 2020-04-08)"><metadata
     id="metadata30"><rdf:RDF><cc:Work
         rdf:about=""><dc:format>image/svg+xml</dc:format><dc:type
           rdf:resource="http://purl.org/dc/dcmitype/StillImage" /></cc:Work></rdf:RDF></metadata><defs
     id="defs28" /><sodipodi:namedview
     pagecolor="#ffffff"
     bordercolor="#666666"
     borderopacity="1"
     objecttolerance="10"
     gridtolerance="10"
     guidetolerance="10"
     inkscape:pageopacity="0"
     inkscape:pageshadow="2"
     inkscape:window-width="640"
     inkscape:window-height="480"
     id="namedview26"
     showgrid="false"
     inkscape:zoom="7.8666667"
     inkscape:cx="12"
     inkscape:cy="15"
     inkscape:window-x="0"
     inkscape:window-y="36"
     inkscape:window-maximized="0"
     inkscape:current-layer="svg24" /><g
     id="g18"
     style="fill:#ffffff"><rect
       x="11"
       y="2"
       width="2"
       height="2"
       id="rect2"
       style="fill:#ffffff" /><rect
       x="17"
       y="3.6"
       transform="matrix(0.7071 0.7071 -0.7071 0.7071 8.5147 -11.3848)"
       width="2"
       height="2"
       id="rect4"
       style="fill:#ffffff" /><rect
       x="20"
       y="8"
       width="2"
       height="2"
       id="rect6"
       style="fill:#ffffff" /><rect
       x="2"
       y="8"
       width="2"
       height="2"
       id="rect8"
       style="fill:#ffffff" /><rect
       x="5"
       y="3.6"
       transform="matrix(0.7071 0.7071 -0.7071 0.7071 5 -2.8995)"
       width="2"
       height="2"
       id="rect10"
       style="fill:#ffffff" /><path
       d="M21,12h-2l0,0c0-3.9-3.1-7-7-7s-7,3.1-7,7v0l-2,0c-0.6,0-1,0.4-1,1c0,0.6,0.4,1,1,1h18c0.6,0,1-0.4,1-1   C22,12.4,21.6,12,21,12z"
       id="path12"
       style="fill:#ffffff" /><path
       d="M19,16H5c-0.6,0-1,0.4-1,1c0,0.6,0.4,1,1,1h14c0.6,0,1-0.4,1-1C20,16.4,19.6,16,19,16z"
       id="path14"
       style="fill:#ffffff" /><path
       d="M16,20H8c-0.6,0-1,0.4-1,1c0,0.6,0.4,1,1,1h8c0.6,0,1-0.4,1-1C17,20.4,16.6,20,16,20z"
       id="path16"
       style="fill:#ffffff" /></g><text
     x="0"
     y="39"
     fill="#000000"
     font-size="5px"
     font-weight="bold"
     font-family="'Helvetica Neue', Helvetica, Arial-Unicode, Arial, Sans-serif"
     id="text20"
     style="fill:#ffffff;">Created by Creative Stall</text>
<text
     x="0"
     y="44"
     fill="#000000"
     font-size="5px"
     font-weight="bold"
     font-family="'Helvetica Neue', Helvetica, Arial-Unicode, Arial, Sans-serif"
     id="text22"
     style="fill:#ffffff;">from the Noun Project</text>
</svg>