<?xml version="1.0" encoding="UTF-8" standalone="no"?>
<svg
   xmlns:dc="http://purl.org/dc/elements/1.1/"
   xmlns:cc="http://creativecommons.org/ns#"
   xmlns:rdf="http://www.w3.org/1999/02/22-rdf-syntax-ns#"
   xmlns:svg="http://www.w3.org/2000/svg"
   xmlns="http://www.w3.org/2000/svg"
   xmlns:sodipodi="http://sodipodi.sourceforge.net/DTD/sodipodi-0.dtd"
   xmlns:inkscape="http://www.inkscape.org/namespaces/inkscape"
   version="1.1"
   x="0px"
   y="0px"
   viewBox="0 0 24 30"
   enable-background="new 0 0 24 24"
   xml:space="preserve"
   id="svg30"
   sodipodi:docname="noun_Sunrise _395827.svg"
   inkscape:version="0.92.5 (2060ec1f9f, 2020-04-08)"><metadata
     id="metadata36"><rdf:RDF><cc:Work
         rdf:about=""><dc:format>image/svg+xml</dc:format><dc:type
           rdf:resource="http://purl.org/dc/dcmitype/StillImage" /></cc:Work></rdf:RDF></metadata><defs
     id="defs34" /><sodipodi:namedview
     pagecolor="#ffffff"
     bordercolor="#666666"
     borderopacity="1"
     objecttolerance="10"
     gridtolerance="10"
     guidetolerance="10"
     inkscape:pageopacity="0"
     inkscape:pageshadow="2"
     inkscape:window-width="640"
     inkscape:window-height="480"
     id="namedview32"
     showgrid="false"
     inkscape:zoom="7.8666667"
     inkscape:cx="12"
     inkscape:cy="15"
     inkscape:window-x="0"
     inkscape:window-y="36"
     inkscape:window-maximized="0"
     inkscape:current-layer="svg30" /><g
     id="g24"
     style="fill:#ffffff"><rect
       x="11"
       y="2"
       width="2"
       height="2"
       id="rect2"
       style="fill:#ffffff" /><rect
       x="11"
       y="12"
       width="2"
       height="2"
       id="rect4"
       style="fill:#ffffff" /><rect
       x="16"
       y="7"
       width="2"
       height="2"
       id="rect6"
       style="fill:#ffffff" /><rect
       x="6"
       y="7"
       width="2"
       height="2"
       id="rect8"
       style="fill:#ffffff" /><rect
       x="14.5"
       y="3.5"
       transform="matrix(0.7071 0.7071 -0.7071 0.7071 7.7063 -9.6769)"
       width="2"
       height="2"
       id="rect10"
       style="fill:#ffffff" /><rect
       x="7.5"
       y="10.5"
       transform="matrix(-0.7071 -0.7071 0.7071 -0.7071 6.292 25.6773)"
       width="2"
       height="2"
       id="rect12"
       style="fill:#ffffff" /><rect
       x="14.5"
       y="10.5"
       transform="matrix(-0.7071 -0.7071 0.7071 -0.7071 18.3632 30.6772)"
       width="2"
       height="2"
       id="rect14"
       style="fill:#ffffff" /><rect
       x="7.5"
       y="3.5"
       transform="matrix(0.7071 0.7071 -0.7071 0.7071 5.6354 -4.677)"
       width="2"
       height="2"
       id="rect16"
       style="fill:#ffffff" /><circle
       cx="12"
       cy="8"
       r="3"
       id="circle18"
       style="fill:#ffffff" /><path
       d="M11.8,16.9c1.5,1.3,3.1,3,4.4,5.1H22v-7.9C22,14.1,16.6,13.1,11.8,16.9z"
       id="path20"
       style="fill:#ffffff" /><path
       d="M2,14l0,8h11.7C9,15.3,2,14,2,14z"
       id="path22"
       style="fill:#ffffff" /></g><text
     x="0"
     y="39"
     fill="#000000"
     font-size="5px"
     font-weight="bold"
     font-family="'Helvetica Neue', Helvetica, Arial-Unicode, Arial, Sans-serif"
     id="text26">Created by Creative Stall</text>
<text
     x="0"
     y="44"
     fill="#000000"
     font-size="5px"
     font-weight="bold"
     font-family="'Helvetica Neue', Helvetica, Arial-Unicode, Arial, Sans-serif"
     id="text28">from the Noun Project</text>
</svg>